<?xml version="1.0" encoding="UTF-8" standalone="yes"?><svg xmlns="http://www.w3.org/2000/svg" xmlns:xlink="http://www.w3.org/1999/xlink" height="576pt" style="width:850px;height:576px;" version="1.1" viewBox="0 0 850 576" width="850pt"><defs><filter height="300%" id="f1" width="300%" x="-1" y="-1"><feGaussianBlur result="blurOut" stdDeviation="2.0"/><feColorMatrix in="blurOut" result="blurOut2" type="matrix" values="0 0 0 0 0 0 0 0 0 0 0 0 0 0 0 0 0 0 .4 0"/><feOffset dx="4.0" dy="4.0" in="blurOut2" result="blurOut3"/><feBlend in="SourceGraphic" in2="blurOut3" mode="normal"/></filter></defs><g><text fill="#000000" font-size="18" lengthAdjust="spacingAndGlyphs" textLength="217" x="322.5" y="18">Katalogizace e-publikace</text><rect fill="#FFFFFF" filter="url(#f1)" height="525" style="stroke: #000000; stroke-width: 2.0;" width="332" x="190" y="44.9531"/><ellipse cx="356.1614" cy="368.8854" fill="#FEFECE" filter="url(#f1)" rx="115.1614" ry="25.4323" style="stroke: #A80036; stroke-width: 1.5;"/><text fill="#000000" font-size="14" lengthAdjust="spacingAndGlyphs" textLength="209" x="251.6614" y="373.5338">UC04-00 Příprava katalogizace</text><ellipse cx="356.4091" cy="92.1349" fill="#FEFECE" filter="url(#f1)" rx="146.4091" ry="31.6818" style="stroke: #A80036; stroke-width: 1.5;"/><text fill="#000000" font-size="14" lengthAdjust="spacingAndGlyphs" textLength="275" x="218.9091" y="96.7834">UC04-01 Zadání bibliografického popisu</text><ellipse cx="356.5203" cy="450.7572" fill="#FEFECE" filter="url(#f1)" rx="99.5203" ry="22.3041" style="stroke: #A80036; stroke-width: 1.5;"/><text fill="#000000" font-size="14" lengthAdjust="spacingAndGlyphs" textLength="175" x="269.0203" y="455.4056">UC04-02 Oprava souboru</text><ellipse cx="356.6177" cy="531.0767" fill="#FEFECE" filter="url(#f1)" rx="103.6177" ry="23.1235" style="stroke: #A80036; stroke-width: 1.5;"/><text fill="#000000" font-size="14" lengthAdjust="spacingAndGlyphs" textLength="184" x="264.6177" y="535.7251">UC04-03 Stáhnutí souboru</text><ellipse cx="355.7683" cy="189.8068" fill="#FEFECE" filter="url(#f1)" rx="149.7683" ry="32.3537" style="stroke: #A80036; stroke-width: 1.5;"/><text fill="#000000" font-size="14" lengthAdjust="spacingAndGlyphs" textLength="282" x="214.7683" y="194.4552">UC04-04 Blokování přístupu k e-publikaci</text><ellipse cx="356.4293" cy="283.039" fill="#FEFECE" filter="url(#f1)" rx="118.4293" ry="26.0859" style="stroke: #A80036; stroke-width: 1.5;"/><text fill="#000000" font-size="14" lengthAdjust="spacingAndGlyphs" textLength="216" x="248.4293" y="287.6874">UC04-05 Odmítnutí e-publikace</text><ellipse cx="76.5" cy="459.4531" fill="#FEFECE" filter="url(#f1)" rx="8" ry="8" style="stroke: #A80036; stroke-width: 2.0;"/><path d="M76.5,467.4531 L76.5,494.4531 M63.5,475.4531 L89.5,475.4531 M76.5,494.4531 L63.5,509.4531 M76.5,494.4531 L89.5,509.4531 " fill="#FEFECE" filter="url(#f1)" style="stroke: #A80036; stroke-width: 2.0;"/><text fill="#000000" font-size="14" lengthAdjust="spacingAndGlyphs" textLength="139" x="7" y="530.4531">Nakladatel/vydavatel</text><ellipse cx="76" cy="342.4531" fill="#FEFECE" filter="url(#f1)" rx="8" ry="8" style="stroke: #A80036; stroke-width: 2.0;"/><path d="M76,350.4531 L76,377.4531 M63,358.4531 L89,358.4531 M76,377.4531 L63,392.4531 M76,377.4531 L89,392.4531 " fill="#FEFECE" filter="url(#f1)" style="stroke: #A80036; stroke-width: 2.0;"/><text fill="#000000" font-size="14" lengthAdjust="spacingAndGlyphs" textLength="124" x="14" y="413.4531">Pracovník akvizice</text><ellipse cx="705" cy="158.4531" fill="#FEFECE" filter="url(#f1)" rx="8" ry="8" style="stroke: #A80036; stroke-width: 2.0;"/><path d="M705,166.4531 L705,193.4531 M692,174.4531 L718,174.4531 M705,193.4531 L692,208.4531 M705,193.4531 L718,208.4531 " fill="#FEFECE" filter="url(#f1)" style="stroke: #A80036; stroke-width: 2.0;"/><text fill="#000000" font-size="14" lengthAdjust="spacingAndGlyphs" textLength="156" x="627" y="229.4531">Pracovník katalogizace</text><ellipse cx="705.5" cy="337.4531" fill="#FEFECE" filter="url(#f1)" rx="8" ry="8" style="stroke: #A80036; stroke-width: 2.0;"/><path d="M705.5,345.4531 L705.5,372.4531 M692.5,353.4531 L718.5,353.4531 M705.5,372.4531 L692.5,387.4531 M705.5,372.4531 L718.5,387.4531 " fill="#FEFECE" filter="url(#f1)" style="stroke: #A80036; stroke-width: 2.0;"/><text fill="#000000" font-size="14" lengthAdjust="spacingAndGlyphs" textLength="181" x="615" y="408.4531">Administrátor katalogizace</text><ellipse cx="76.5" cy="225.4531" fill="#FEFECE" filter="url(#f1)" rx="8" ry="8" style="stroke: #A80036; stroke-width: 2.0;"/><path d="M76.5,233.4531 L76.5,260.4531 M63.5,241.4531 L89.5,241.4531 M76.5,260.4531 L63.5,275.4531 M76.5,260.4531 L89.5,275.4531 " fill="#FEFECE" filter="url(#f1)" style="stroke: #A80036; stroke-width: 2.0;"/><text fill="#000000" font-size="14" lengthAdjust="spacingAndGlyphs" textLength="51" x="51" y="296.4531">Systém</text><ellipse cx="705.2809" cy="84.0093" fill="#FEFECE" filter="url(#f1)" rx="138.2809" ry="30.0562" style="stroke: #A80036; stroke-width: 1.5;"/><text fill="#000000" font-size="14" lengthAdjust="spacingAndGlyphs" textLength="258" x="576.2809" y="88.6577">Aleph: Zadání bibliografického popisu</text><path d="M476.452,368.9531 C521.719,368.9531 572.37,368.9531 614.463,368.9531 " fill="none" style="stroke: #A80036; stroke-width: 1.0;"/><polygon fill="#A80036" points="471.243,368.9531,480.243,372.9531,476.243,368.9531,480.243,364.9531,471.243,368.9531" style="stroke: #A80036; stroke-width: 1.0;"/><path d="M451.006,117.9931 C476.66,125.0701 504.403,132.7661 530,139.9531 C561.638,148.8361 596.452,158.7541 626.64,167.3991 " fill="none" style="stroke: #A80036; stroke-width: 1.0;"/><polygon fill="#A80036" points="445.904,116.5861,453.5158,122.836,450.7239,117.9161,455.6437,115.1242,445.904,116.5861" style="stroke: #A80036; stroke-width: 1.0;"/><path d="M145.573,481.0141 C182.309,475.7661 227.793,469.2681 267.065,463.6581 " fill="none" style="stroke: #A80036; stroke-width: 1.0;"/><polygon fill="#A80036" points="272.316,462.9081,262.8407,460.2215,267.3663,463.6154,263.9724,468.1411,272.316,462.9081" style="stroke: #A80036; stroke-width: 1.0;"/><path d="M145.573,500.8921 C181.224,505.9851 225.114,512.2551 263.57,517.7488 " fill="none" style="stroke: #A80036; stroke-width: 1.0;"/><polygon fill="#A80036" points="268.715,518.4838,260.3712,513.2512,263.7653,517.7767,259.2398,521.1708,268.715,518.4838" style="stroke: #A80036; stroke-width: 1.0;"/><path d="M511.401,189.9531 C551.321,189.9531 592.591,189.9531 626.718,189.9531 " fill="none" style="stroke: #A80036; stroke-width: 1.0;"/><polygon fill="#A80036" points="506.033,189.9531,515.033,193.9531,511.033,189.9531,515.033,185.9531,506.033,189.9531" style="stroke: #A80036; stroke-width: 1.0;"/><path d="M439.864,262.2021 C468.497,254.9971 500.684,246.7631 530,238.9531 C561.707,230.5071 596.534,220.8361 626.713,212.3301 " fill="none" style="stroke: #A80036; stroke-width: 1.0;"/><polygon fill="#A80036" points="434.932,263.4421,444.636,265.1251,439.7809,262.2221,442.6839,257.3669,434.932,263.4421" style="stroke: #A80036; stroke-width: 1.0;"/><path d="M705,119.1101 C705,128.9221 705,138.7351 705,148.5471 " fill="none" style="stroke: #A80036; stroke-width: 1.0;"/><polygon fill="#A80036" points="705,113.9791,701,122.9791,705,118.9791,709,122.9791,705,113.9791" style="stroke: #A80036; stroke-width: 1.0;"/></g></svg>