<?xml version="1.0" encoding="UTF-8" standalone="yes"?><svg xmlns="http://www.w3.org/2000/svg" xmlns:xlink="http://www.w3.org/1999/xlink" height="1785pt" style="width:984px;height:1785px;" version="1.1" viewBox="0 0 984 1785" width="984pt"><defs><filter height="300%" id="f1" width="300%" x="-1" y="-1"><feGaussianBlur result="blurOut" stdDeviation="2.0"/><feColorMatrix in="blurOut" result="blurOut2" type="matrix" values="0 0 0 0 0 0 0 0 0 0 0 0 0 0 0 0 0 0 .4 0"/><feOffset dx="4.0" dy="4.0" in="blurOut2" result="blurOut3"/><feBlend in="SourceGraphic" in2="blurOut3" mode="normal"/></filter></defs><g><text fill="#000000" font-size="18" font-weight="bold" lengthAdjust="spacingAndGlyphs" textLength="369" x="319" y="18">Pracovní cyklus pokračujícího zdroje</text><rect fill="#F4A460" filter="url(#f1)" height="51.0449" rx="12.5" ry="12.5" style="stroke: #CD853F; stroke-width: 1.5;" width="257" x="58" y="175.4531"/><line style="stroke: #CD853F; stroke-width: 1.5;" x1="58" x2="315" y1="202.5293" y2="202.5293"/><text fill="#000000" font-family="Impact" font-size="14" lengthAdjust="spacingAndGlyphs" textLength="51" x="161" y="194.4531">Ohlášení</text><text fill="#000000" font-size="12" lengthAdjust="spacingAndGlyphs" textLength="237" x="63" y="219.5293">možnost ohlášení pokračujícího zdroje</text><rect fill="#ECE8DF" filter="url(#f1)" height="50" rx="12.5" ry="12.5" style="stroke: #CD853F; stroke-width: 1.5;" width="68" x="355" y="750.9531"/><line style="stroke: #CD853F; stroke-width: 1.5;" x1="355" x2="423" y1="778.0293" y2="778.0293"/><text fill="#000000" font-family="Impact" font-size="14" lengthAdjust="spacingAndGlyphs" textLength="48" x="365" y="769.9531">Akvizice</text><rect fill="#ECE8DF" filter="url(#f1)" height="50" rx="12.5" ry="12.5" style="stroke: #CD853F; stroke-width: 1.5;" width="119" x="293" y="542.9531"/><line style="stroke: #CD853F; stroke-width: 1.5;" x1="293" x2="412" y1="570.0293" y2="570.0293"/><text fill="#000000" font-family="Impact" font-size="14" lengthAdjust="spacingAndGlyphs" textLength="99" x="303" y="561.9531">Příprava akvizice</text><rect fill="#ECE8DF" filter="url(#f1)" height="50" rx="12.5" ry="12.5" style="stroke: #CD853F; stroke-width: 1.5;" width="144" x="658" y="990.9531"/><line style="stroke: #CD853F; stroke-width: 1.5;" x1="658" x2="802" y1="1018.0293" y2="1018.0293"/><text fill="#000000" font-family="Impact" font-size="14" lengthAdjust="spacingAndGlyphs" textLength="124" x="668" y="1009.9531">Příprava katalogizace</text><rect fill="#ECE8DF" filter="url(#f1)" height="50" rx="12.5" ry="12.5" style="stroke: #CD853F; stroke-width: 1.5;" width="94" x="734" y="1134.9531"/><line style="stroke: #CD853F; stroke-width: 1.5;" x1="734" x2="828" y1="1162.0293" y2="1162.0293"/><text fill="#000000" font-family="Impact" font-size="14" lengthAdjust="spacingAndGlyphs" textLength="74" x="744" y="1153.9531">Katalogizace</text><rect fill="#F4A460" filter="url(#f1)" height="50" rx="12.5" ry="12.5" style="stroke: #CD853F; stroke-width: 1.5;" width="61" x="467" y="1374.9531"/><line style="stroke: #CD853F; stroke-width: 1.5;" x1="467" x2="528" y1="1402.0293" y2="1402.0293"/><text fill="#000000" font-family="Impact" font-size="14" lengthAdjust="spacingAndGlyphs" textLength="41" x="477" y="1393.9531">Oprava</text><rect fill="#4682B4" filter="url(#f1)" height="50" rx="12.5" ry="12.5" style="stroke: #CD853F; stroke-width: 1.5;" width="111" x="131" y="334.9531"/><line style="stroke: #CD853F; stroke-width: 1.5;" x1="131" x2="242" y1="362.0293" y2="362.0293"/><text fill="#000000" font-family="Impact" font-size="14" lengthAdjust="spacingAndGlyphs" textLength="91" x="141" y="353.9531">Export do Alephu</text><rect fill="#ECE8DF" filter="url(#f1)" height="50" rx="12.5" ry="12.5" style="stroke: #CD853F; stroke-width: 1.5;" width="107" x="626" y="1582.9531"/><line style="stroke: #CD853F; stroke-width: 1.5;" x1="626" x2="733" y1="1610.0293" y2="1610.0293"/><text fill="#000000" font-family="Impact" font-size="14" lengthAdjust="spacingAndGlyphs" textLength="87" x="636" y="1601.9531">Stažený z oběhu</text><ellipse cx="186" cy="38.9531" fill="#000000" filter="url(#f1)" rx="10" ry="10" style="stroke: none; stroke-width: 1.0;"/><ellipse cx="881" cy="1768.9531" fill="none" filter="url(#f1)" rx="10" ry="10" style="stroke: #000000; stroke-width: 1.0;"/><ellipse cx="881.5" cy="1769.4531" fill="#000000" rx="6" ry="6" style="stroke: none; stroke-width: 1.0;"/><path d="M186,49.0831 C186,72.8531 186,132.9731 186,170.0431 " fill="none" style="stroke: #008000; stroke-width: 1.0;"/><polygon fill="#008000" points="186,175.3431,190,166.3431,186,170.3431,182,166.3431,186,175.3431" style="stroke: #008000; stroke-width: 1.0;"/><path d="M186,226.5031 C186,254.6331 186,299.8231 186,329.7031 " fill="none" style="stroke: #008000; stroke-width: 1.0;"/><polygon fill="#008000" points="186,334.7331,190,325.7331,186,329.7331,182,325.7331,186,334.7331" style="stroke: #008000; stroke-width: 1.0;"/><text fill="#000000" font-size="13" lengthAdjust="spacingAndGlyphs" textLength="117" x="187" y="270.9531">&lt;&lt; producent &gt;&gt;</text><text fill="#000000" font-size="13" lengthAdjust="spacingAndGlyphs" textLength="102" x="196.5" y="286.0859">&lt;&lt; akvizice &gt;&gt;</text><text fill="#000000" font-size="13" lengthAdjust="spacingAndGlyphs" textLength="57" x="221" y="301.2188">K akvizici</text><path d="M206.023,385.0431 C236.87,423.6931 295.869,497.6231 328.626,538.6631 " fill="none" style="stroke: #008000; stroke-width: 1.0;"/><polygon fill="#008000" points="331.906,542.7731,329.4242,533.2421,328.7895,538.8632,323.1684,538.2285,331.906,542.7731" style="stroke: #008000; stroke-width: 1.0;"/><text fill="#000000" font-size="13" lengthAdjust="spacingAndGlyphs" textLength="99" x="292.5" y="461.4531">&lt;&lt; system &gt;&gt;</text><text fill="#000000" font-size="13" lengthAdjust="spacingAndGlyphs" textLength="120" x="286" y="476.5859">Export to Aleph OK</text><path d="M130.525,368.1731 C77.637,379.5331 6,405.6631 6,463.9531 C6,463.9531 6,463.9531 6,1295.9531 C6,1342.5381 348.643,1383.8681 461.46,1396.2131 " fill="none" style="stroke: #008000; stroke-width: 1.0;"/><polygon fill="#008000" points="466.656,1396.7791,458.1421,1391.828,461.6854,1396.2376,457.2757,1399.7809,466.656,1396.7791" style="stroke: #008000; stroke-width: 1.0;"/><text fill="#000000" font-size="13" lengthAdjust="spacingAndGlyphs" textLength="99" x="24" y="845.4531">&lt;&lt; system &gt;&gt;</text><text fill="#000000" font-size="13" lengthAdjust="spacingAndGlyphs" textLength="133" x="11" y="860.5859">Export to Aleph Error</text><path d="M466.897,1396.4211 C388.848,1386.4311 186,1354.8061 186,1295.9531 C186,463.9531 186,463.9531 186,463.9531 C186,439.1531 186,411.0231 186,390.2831 " fill="none" style="stroke: #008000; stroke-width: 1.0;"/><polygon fill="#008000" points="186,385.1731,182,394.1731,186,390.1731,190,394.1731,186,385.1731" style="stroke: #008000; stroke-width: 1.0;"/><text fill="#000000" font-size="13" lengthAdjust="spacingAndGlyphs" textLength="117" x="187" y="845.4531">&lt;&lt; producent &gt;&gt;</text><text fill="#000000" font-size="13" lengthAdjust="spacingAndGlyphs" textLength="57" x="221" y="860.5859">K akvizici</text><path d="M356.463,593.0431 C363.283,631.3831 376.277,704.4331 383.612,745.6631 " fill="none" style="stroke: #008000; stroke-width: 1.0;"/><polygon fill="#008000" points="384.521,750.7731,386.8641,741.207,383.6356,745.8521,378.9905,742.6237,384.521,750.7731" style="stroke: #008000; stroke-width: 1.0;"/><text fill="#000000" font-size="13" lengthAdjust="spacingAndGlyphs" textLength="156" x="374" y="669.4531">&lt;&lt; správce akvizice &gt;&gt;</text><text fill="#000000" font-size="13" lengthAdjust="spacingAndGlyphs" textLength="107" x="402.5" y="684.5859">Potvrdit přidělení</text><path d="M384.796,801.1531 C376.363,856.8441 360.288,994.2301 386,1104.9531 C398.319,1158.0041 419.92,1164.3281 440,1214.9531 C461.082,1268.1031 479.318,1332.3171 489.179,1369.4141 " fill="none" style="stroke: #008000; stroke-width: 1.0;"/><polygon fill="#008000" points="490.572,1374.6861,492.1405,1364.963,489.2949,1369.852,484.4059,1367.0063,490.572,1374.6861" style="stroke: #008000; stroke-width: 1.0;"/><text fill="#000000" font-size="13" lengthAdjust="spacingAndGlyphs" textLength="102" x="387" y="1085.4531">&lt;&lt; akvizice &gt;&gt;</text><text fill="#000000" font-size="13" lengthAdjust="spacingAndGlyphs" textLength="94" x="395" y="1100.5859">Vrátit k opravě</text><path d="M401.615,801.1761 C425.877,851.1511 478.454,966.9221 499,1070.9531 C522.436,1189.6161 506,1222.0141 508,1342.9531 C508.145,1351.7151 506.922,1361.1011 505.244,1369.6761 " fill="none" style="stroke: #008000; stroke-width: 1.0;"/><polygon fill="#008000" points="504.149,1374.8981,509.9127,1366.9119,505.1762,1370.0048,502.0834,1365.2683,504.149,1374.8981" style="stroke: #008000; stroke-width: 1.0;"/><text fill="#000000" font-size="13" lengthAdjust="spacingAndGlyphs" textLength="117" x="505" y="1085.4531">&lt;&lt; producent &gt;&gt;</text><text fill="#000000" font-size="13" lengthAdjust="spacingAndGlyphs" textLength="94" x="520.5" y="1100.5859">Vrátit k opravě</text><path d="M423.206,781.1411 C460.253,787.9711 519.951,802.5951 564,830.9531 C628.59,872.5351 683.619,945.7411 711.153,986.4851 " fill="none" style="stroke: #008000; stroke-width: 1.0;"/><polygon fill="#008000" points="714.052,990.8061,712.3587,981.1039,711.266,986.6542,705.7157,985.5616,714.052,990.8061" style="stroke: #008000; stroke-width: 1.0;"/><text fill="#000000" font-size="13" lengthAdjust="spacingAndGlyphs" textLength="102" x="696.5" y="909.4531">&lt;&lt; akvizice &gt;&gt;</text><text fill="#000000" font-size="13" lengthAdjust="spacingAndGlyphs" textLength="159" x="672" y="924.5859">Potvrdit a ke katalogizaci</text><path d="M372.533,800.9741 C351.559,835.3201 318,899.6901 318,959.9531 C318,959.9531 318,959.9531 318,1503.9531 C318,1566.1691 518.489,1593.4131 620.645,1603.2561 " fill="none" style="stroke: #008000; stroke-width: 1.0;"/><polygon fill="#008000" points="625.733,1603.7401,617.1517,1598.9068,620.7554,1603.2672,616.395,1606.871,625.733,1603.7401" style="stroke: #008000; stroke-width: 1.0;"/><text fill="#000000" font-size="13" lengthAdjust="spacingAndGlyphs" textLength="102" x="325" y="1229.4531">&lt;&lt; akvizice &gt;&gt;</text><text fill="#000000" font-size="13" lengthAdjust="spacingAndGlyphs" textLength="114" x="323" y="1244.5859">Stáhnout z oběhu</text><path d="M518.953,1425.0431 C552.842,1463.7721 617.721,1537.9191 653.59,1578.9131 " fill="none" style="stroke: #008000; stroke-width: 1.0;"/><polygon fill="#008000" points="656.969,1582.7741,654.0523,1573.3671,653.6763,1579.0114,648.0319,1578.6354,656.969,1582.7741" style="stroke: #008000; stroke-width: 1.0;"/><text fill="#000000" font-size="13" lengthAdjust="spacingAndGlyphs" textLength="102" x="608" y="1501.4531">&lt;&lt; akvizice &gt;&gt;</text><text fill="#000000" font-size="13" lengthAdjust="spacingAndGlyphs" textLength="114" x="606" y="1516.5859">Stáhnout z oběhu</text><path d="M738.884,1041.0361 C747.642,1065.7661 761.033,1103.5751 770.356,1129.8991 " fill="none" style="stroke: #008000; stroke-width: 1.0;"/><polygon fill="#008000" points="772.047,1134.6741,772.8113,1124.855,770.377,1129.9613,765.2707,1127.527,772.047,1134.6741" style="stroke: #008000; stroke-width: 1.0;"/><text fill="#000000" font-size="13" lengthAdjust="spacingAndGlyphs" textLength="222" x="761" y="1085.4531">&lt;&lt; administrátor katalogizace &gt;&gt;</text><text fill="#000000" font-size="13" lengthAdjust="spacingAndGlyphs" textLength="95" x="828.5" y="1100.5859">Ke katalogizaci</text><path d="M751.411,1184.9581 C698.273,1229.8631 587.005,1323.8931 530.893,1371.3111 " fill="none" style="stroke: #008000; stroke-width: 1.0;"/><polygon fill="#008000" points="526.95,1374.6431,536.4064,1371.8906,530.7695,1371.4164,531.2437,1365.7795,526.95,1374.6431" style="stroke: #008000; stroke-width: 1.0;"/><text fill="#000000" font-size="13" lengthAdjust="spacingAndGlyphs" textLength="117" x="640" y="1293.4531">&lt;&lt; producent &gt;&gt;</text><text fill="#000000" font-size="13" lengthAdjust="spacingAndGlyphs" textLength="94" x="655.5" y="1308.5859">Vrátit k opravě</text><path d="M786.055,1185.1511 C791.066,1212.3641 798,1257.0481 798,1295.9531 C798,1295.9531 798,1295.9531 798,1503.9531 C798,1539.7811 767.04,1566.1171 736.703,1583.3231 " fill="none" style="stroke: #008000; stroke-width: 1.0;"/><polygon fill="#008000" points="732.235,1585.7951,742.0464,1584.9373,736.6098,1583.3742,738.1729,1577.9376,732.235,1585.7951" style="stroke: #008000; stroke-width: 1.0;"/><text fill="#000000" font-size="13" lengthAdjust="spacingAndGlyphs" textLength="111" x="800.5" y="1397.4531">&lt;&lt; knihovník &gt;&gt;</text><text fill="#000000" font-size="13" lengthAdjust="spacingAndGlyphs" textLength="114" x="803" y="1412.5859">Stáhnout z oběhu</text><path d="M710.562,1633.1091 C756.04,1669.3561 837.92,1734.617 868.784,1759.2163 " fill="none" style="stroke: #008000; stroke-width: 1.0;"/><polygon fill="#008000" points="872.957,1762.5424,868.4112,1753.8054,869.0467,1759.4264,863.4256,1760.0619,872.957,1762.5424" style="stroke: #008000; stroke-width: 1.0;"/><path d="M828.213,1171.3631 C884.774,1188.1801 972,1225.5301 972,1295.9531 C972,1295.9531 972,1295.9531 972,1695.9531 C972,1734.6885 921.212,1756.2901 895.52,1764.7394 " fill="none" style="stroke: #008000; stroke-width: 1.0;"/><polygon fill="#008000" points="890.739,1766.2551,900.5271,1767.3475,895.5051,1764.7438,898.1089,1759.7218,890.739,1766.2551" style="stroke: #008000; stroke-width: 1.0;"/></g></svg>